<svg id="Layer_1" data-name="Layer 1" xmlns="http://www.w3.org/2000/svg" xmlns:xlink="http://www.w3.org/1999/xlink" viewBox="0 0 3010.61 1722.96"><defs><style>.cls-1{fill:#d08a52;}.cls-2{fill:#25867a;}.cls-3{fill:#c6a75a;}.cls-4{fill:url(#linear-gradient);}.cls-5{fill:url(#linear-gradient-2);}.cls-6{fill:url(#linear-gradient-3);}.cls-7{fill:url(#linear-gradient-4);}</style><linearGradient id="linear-gradient" x1="2568.05" y1="1758.15" x2="2679.34" y2="1744.49" gradientUnits="userSpaceOnUse"><stop offset="0.16" stop-color="#c6a75a"/><stop offset="1" stop-color="#997d38"/></linearGradient><linearGradient id="linear-gradient-2" x1="2820.17" y1="1867.41" x2="2743.71" y2="1776.29" xlink:href="#linear-gradient"/><linearGradient id="linear-gradient-3" x1="2586.41" y1="1111.21" x2="2716.35" y2="1111.21" xlink:href="#linear-gradient"/><linearGradient id="linear-gradient-4" x1="2741.07" y1="891.17" x2="2700.75" y2="990.96" xlink:href="#linear-gradient"/></defs><path class="cls-1" d="M3017.24,1343.81c3.84-3.84,3.84-7.69,3.84-11.53,0-11.53-5.76-17.29-5.76-30.74,0-159.46,516.79-635.93,516.79-895.3a189.6,189.6,0,0,0-5.76-46.11c-26.9-94.14-163.3-128.72-253.59-128.72-126.8,0-199.8,74.92-236.31,128.72-49.95,74.93-63.4,138.33-67.24,228.63,0,82.61,28.82,132.56,73,132.56q20.16,0,40.34-11.52v-1.92c38.42-249.77,157.54-397.7,272.81-397.7,38.42,0,67.24,17.29,67.24,57.63,0,180.6-478.37,707-478.37,903,0,53.8,50,73,65.32,73Zm-73,361.19c82.61-13.45,99.9-76.85,105.66-134.48,0-53.8-38.42-78.78-84.53-84.54-51.87,0-90.29,55.72-90.29,146C2875.08,1687.71,2894.29,1705,2944.24,1705Z" transform="translate(-521.5 -231.41)"/><path class="cls-2" d="M808.59,1461.16a76.49,76.49,0,0,0,20,23.14,108.59,108.59,0,0,0,60.76,22.2q-1.25-30.84,7.41-67.55a403.19,403.19,0,0,1,25.9-74.64,487,487,0,0,1,42.57-74.64,438.57,438.57,0,0,1,57.37-67.55,358.35,358.35,0,0,1,70.93-53,283.49,283.49,0,0,1,82.66-31.46,12.11,12.11,0,0,0,5.55-1.24l-3.7,10.49v-.62q-10.49,30.24-22.2,69.4t-22.83,83.28q-11.1,44.11-21,91.3t-15.73,93.46a861.73,861.73,0,0,0-6.79,90.06q-.91,43.82,5.25,80.82,6.15,39.46,21.9,70t44.1,47.81a147.11,147.11,0,0,0,26.22,13,70.15,70.15,0,0,0,23.75,4.31q21.59,0,40.71-16.65,8.63-7.41,10.18-23.13t-4.63-34.24q-3.09-14.2-9.56-13.57t-16.35,8l.62-.62q-5.55,3.07-13.57,7.71a33,33,0,0,1-16.66,4.63,14.62,14.62,0,0,1-5.86-1.55c-2.26-1-4.22-2-5.86-2.77q-12.35-11.73-17.27-41.33-4.32-27.76-2.16-64.47t8.64-78.34q6.48-41.64,16.35-86.37t21.28-87.9q11.4-43.17,23.44-83t22.2-71.87q10.18-32.07,17.59-54.29t10.48-30.22c2.47-3.71,3-9,1.54-16s-4.73-14.09-9.87-21.29-12.33-13.57-21.59-19.12-20.26-8.33-33-8.33q-69.71,4.95-139.1,29.31a437,437,0,0,0-127.69,70.63q-58.29,46.26-100.24,115t-56.75,161.93Q801.19,1447.91,808.59,1461.16Z" transform="translate(-521.5 -231.41)"/><path class="cls-2" d="M1561.15,1555.85l22.82-59.22v1.24q1.85-4.32-3.39-10.18a51.83,51.83,0,0,0-12.65-10.18,50.91,50.91,0,0,0-14.19-5.86q-6.79-1.53-8.63,1.54l-6.17,17.89q-3.7,9.26-7.71,18.51t-8.94,19.12q-17.28,38.26-37,60.46t-35.16,31.46h.62c-2.06,1.23-3.08,2.47-3.08,3.7a216.65,216.65,0,0,1-1.24-32.08,263.33,263.33,0,0,1,2.78-29q2.14-14.19,5.55-28.69t7.71-31.77q4.93-19.72,11.1-47.19t12.34-58.91q1.23-9.87-4.93-22.83a108.45,108.45,0,0,0-15.73-24.06,111.47,111.47,0,0,0-20.67-18.81q-11.1-7.71-19.74-7.71a96.68,96.68,0,0,0-48.42,17.27,216.23,216.23,0,0,0-41.64,37.63,78.62,78.62,0,0,0-16.66-22.51,127.91,127.91,0,0,0-23.44-18.2,102.78,102.78,0,0,0-24.05-10.8q-11.73-3.37-17.89.31-3.1,25.9-8,54t-9.87,57.68q-4.93,25.29-9.25,50.27t-7.1,50.59q-2.77,25.6-3.39,51.82a402.27,402.27,0,0,0,2.47,54q1.85,8,13.57,16a125.3,125.3,0,0,0,25,13.27q13.26,5.22,24.06,5.86t10.79-6.17a481.19,481.19,0,0,1,.62-80.82,608.36,608.36,0,0,1,12.34-78.34q14.8-25.91,29.61-47.19a469.57,469.57,0,0,1,33.92-42.88l21-25.29q1.23,6.79,0,17.58a182.74,182.74,0,0,1-4.32,23.14q-6.79,29-11.72,52.12t-7.71,42.88q-2.78,19.74-3.7,37.63a240.47,240.47,0,0,0,.92,36.39q2.46,21.6,10.18,37.33t18.51,25.6a69.13,69.13,0,0,0,24.05,14.49,79.09,79.09,0,0,0,26.22,4.63q21,0,39.79-15.11a190.88,190.88,0,0,0,34.54-36.71,336,336,0,0,0,27.45-44.41q11.71-22.81,18.51-38.87Z" transform="translate(-521.5 -231.41)"/><path class="cls-2" d="M1820.22,1503.42l-.62-1.85q.62-13.56-10.18-27.76a134,134,0,0,0-25.29-25.29,105.74,105.74,0,0,0-29.61-16.35q-15.12-5.24-23.13-.93a224.71,224.71,0,0,1-.62,44.42V1475l-6.16,32.08q-6.18,14.2-15.73,31.46t-19.74,33a202.83,202.83,0,0,1-20.36,26.83q-10.17,11.1-18.2,13.57-17.89,5-25.29-4.32t-9.25-23.44a129.59,129.59,0,0,1-2.16-20,82.24,82.24,0,0,1,.93-17q2.45-24.06,11.1-53.67a300.07,300.07,0,0,1,22.21-55.52q13.56-25.9,32.38-42.87t41.64-16.35a26,26,0,0,1,13.26,4.32,33.25,33.25,0,0,1,8.95,9.56,65.8,65.8,0,0,1,6.16,12.64,91.36,91.36,0,0,1,3.71,13,41.21,41.21,0,0,0,1.54,4.93,12.76,12.76,0,0,1,.92,4.32q.61,5.55,7.71,8.33a41.14,41.14,0,0,0,15.12,2.78,40.34,40.34,0,0,0,14.49-2.47q6.48-2.46,5.86-7.4a229.4,229.4,0,0,0-6.17-32.39,154,154,0,0,0-11.72-30.84,92.43,92.43,0,0,0-18.81-25.3,68.9,68.9,0,0,0-27.45-15.73,168,168,0,0,0-17.27-3.7,105.76,105.76,0,0,0-16-1.23,113.44,113.44,0,0,0-50.89,11.72,163.92,163.92,0,0,0-43.49,31.46,260.94,260.94,0,0,0-35.78,45,298.82,298.82,0,0,0-26.52,52.44,339.3,339.3,0,0,0-16,54.28q-5.55,27.15-4.32,50a171.46,171.46,0,0,0,1.85,22.21,166.65,166.65,0,0,0,9,31.77,120,120,0,0,0,18.19,31.77,110.72,110.72,0,0,0,29.3,25.6q17.58,10.79,41.64,13.26a73.83,73.83,0,0,0,31.46-8.63,128.88,128.88,0,0,0,29.61-21.6q-12.34,48.74-19.74,97.16a353.62,353.62,0,0,0-1.23,97.78q1.84,8,12.95,16a104.45,104.45,0,0,0,24.06,13,88.46,88.46,0,0,0,23.75,5.86q10.78.93,12-5.24a495.68,495.68,0,0,1,4-71.56q4.62-36.4,12.33-72.79t17.28-72.79q9.56-36.39,20-70.94l22.83-76.5Z" transform="translate(-521.5 -231.41)"/><path class="cls-2" d="M2021.31,1333.16q-1.23,19.75-5.86,49.35t-10.79,62.31l-6.17,35.16q-1.24,3.09-2.77,6.47c-1,2.27-2,4.43-2.78,6.48h.62q-7.41,19.13-15.73,39.17a320.24,320.24,0,0,1-18.51,37.63,181.79,181.79,0,0,1-22.82,31.47,75.08,75.08,0,0,1-28.69,20h-5.55c.41,0,.62-1.63.62-4.93q-1.86-13,.61-34.85t7.41-46.58q4.92-24.66,11.1-49.66t11.72-45.34v.62q4.3-14.19,6.79-25.3t3.7-16.65q1.85-14.19-8-29a126.29,126.29,0,0,0-23.75-26.53,99.33,99.33,0,0,0-28.38-17.27q-14.49-5.57-21.89-1.24l-4.94,8.64q-1.24,19.13-5.86,47.81t-9.56,60.14q-6.78,38.87-12.65,78.66t-7.09,67.55q0,6.79.62,14.8a145.55,145.55,0,0,0,1.85,14.81q4.93,30.85,21,52.43t43.18,22.83a73.82,73.82,0,0,0,22.82-3.4,102.22,102.22,0,0,0,19.13-8.32,98,98,0,0,0,15.42-10.8,111.5,111.5,0,0,0,11.1-10.8,169.45,169.45,0,0,0,16-20q7.4-10.78,14.19-23.14l.61.62q4.93,31.45,21.29,53t44.1,22.83a73.93,73.93,0,0,0,22.83-3.4,102.4,102.4,0,0,0,19.12-8.32,98,98,0,0,0,15.42-10.8,111.5,111.5,0,0,0,11.1-10.8,270.1,270.1,0,0,0,41.95-64.15q17.27-36.39,31.46-71.56l9.87-23.44q3.71-11.1-.62-19.74a32.15,32.15,0,0,0-11.72-13.27,24.45,24.45,0,0,0-15.11-4q-7.72.63-11.41,8.64l-6.79,17.89q-7.39,19.13-16,39.79a364.85,364.85,0,0,1-19.12,39.17,189.84,189.84,0,0,1-23.13,32.7q-12.66,14.19-28.69,20.35h-6.16c.4,0,.61-1.63.61-4.93q-1.85-13.56.93-35.47t8-47.19q5.24-25.29,11.72-51.2t11.41-46.27v1.23q3.08-12.95,5.86-23.44t4-15.42q1.85-14.19-7.71-29a119.51,119.51,0,0,0-23.44-26.53,99.46,99.46,0,0,0-28.38-17.27q-14.51-5.57-22.51-1.24Z" transform="translate(-521.5 -231.41)"/><path class="cls-2" d="M2199.59,1331.92q-3.71,21.61-10.49,47.81t-13.57,54q-11.1,40.71-21,81.43t-13,71.56v-.62a154,154,0,0,0-.92,21.59q.32,10.5,1.54,20.36,4.32,27.15,18.5,45.34t38.87,18.82a71.82,71.82,0,0,0,22.2-3.4,111.09,111.09,0,0,0,19.43-8.32,92.05,92.05,0,0,0,15.73-10.8q6.78-5.85,11.72-10.18Q2297,1628,2322,1586.7a741.59,741.59,0,0,0,42.87-81.43l-.61,1.23c1.63-2.87.92-6.47-2.16-10.79a56.14,56.14,0,0,0-11.41-11.72,44,44,0,0,0-13.88-7.41c-4.74-1.43-7.71-.92-9,1.55l-6.78,14.8q-9.26,18.51-19.13,38.56a326.92,326.92,0,0,1-21.89,37.94,192.76,192.76,0,0,1-26.53,31.77,87.91,87.91,0,0,1-32.38,20h-4.32c-2.47,0-3.4-3-2.78-8.94a207,207,0,0,1,4.32-23.75q3.38-14.8,9.56-33.93t12.65-39.17q6.46-20,13.57-39.48t12.64-35.47q2.46-6.78,5.25-14.81t4.93-14.19c1.44-4.1,2.56-7.4,3.39-9.87s1-3.28.62-2.46q3.07-14.19-5.24-29.31a95.74,95.74,0,0,0-21.59-26.52,104.17,104.17,0,0,0-27.14-17.28q-13.89-5.85-21.9-1.54Zm29.6-183.21a275.6,275.6,0,0,1,.62,32.08q-.61,16.65-2.47,32.69-1.24,16.05-1.85,30.85a192.17,192.17,0,0,0,.62,27.14q1.23,6.79,8.33,16.66a141.07,141.07,0,0,0,16.65,19.12,138.68,138.68,0,0,0,20.36,16.35q10.78,7.1,18.81,8.94a207.19,207.19,0,0,1,5.86-34.54q4-14.8,8.33-29t8.33-27.76a127.39,127.39,0,0,0,4.63-31.46c-.42-2.47-2.16-6.06-5.25-10.79a155.18,155.18,0,0,0-11.72-15.43q-7.09-8.32-16-17.27a210.17,210.17,0,0,0-17.89-16,107.16,107.16,0,0,0-16.65-11.1q-7.72-4-12.65-3.39Z" transform="translate(-521.5 -231.41)"/><path class="cls-2" d="M2580.79,1568.81l16-41.33,11.72-30.85v1.24q1.86-4.32-3.08-10.8a53.67,53.67,0,0,0-12-11.41,50.92,50.92,0,0,0-14.19-7.09q-7.1-2.16-8.94.92-4.95,13.58-12.65,32.7t-17,38.86h.62a148.62,148.62,0,0,1-16.35,28.38,181.89,181.89,0,0,1-19.43,22.51,96.13,96.13,0,0,1-19.12,14.81q-9.26,5.25-16,4.62-7.41,0-7.41-3.7-1.23-7.39,1.55-18.5a168,168,0,0,1,7.4-22.52q4.62-11.4,10.18-22.52t10.48-19.74q6.16-11.7,12.34-22.82t13-22.21q11.1-20.35,21.28-39.79a260.94,260.94,0,0,0,16-36.7q5.85-17.26,5.86-31.77t-8-25c-.83-.82-3-2.56-6.48-5.24s-7.62-5.55-12.34-8.64-9.25-5.86-13.57-8.32-7.71-3.71-10.18-3.71q-2.47,4.33-11.1,12.34t-19.43,17.27q-10.8,9.26-22.52,18.51t-21.28,16a147.48,147.48,0,0,1-14.8,9.56q-5.25,2.77-3.4-.92l16.66-27.76a96,96,0,0,0,2.16-15.12,45.76,45.76,0,0,0-.93-12,52,52,0,0,0-8-21,71.16,71.16,0,0,0-15.11-16.35,112.3,112.3,0,0,0-19.43-12.34q-10.5-5.22-20.36-10.17a192.39,192.39,0,0,1-5.55,24q-3.09,9.89-6.17,17.89-8,19.75-13.57,34.55t-2.47,33.93a48.3,48.3,0,0,0,10.49,25.29L2326,1485.53v-.62q-1.84,4.32,3.09,10.18a54.54,54.54,0,0,0,12,10.49,49.43,49.43,0,0,0,13.87,6.48q6.78,1.85,8-1.85l.62.61q7.41-17.88,15.42-37.94t18.51-41h5.55q11.1.62,18.51-1.23l14.8-3.7a65.09,65.09,0,0,1,8.64-2.16q4.92-.93,12.95-2.78-16,5-22.21,10.49a37.31,37.31,0,0,0-9.25,12.34l-11.1,21v-.62l-9.26,17.28q-8.64,16-16,31.46a256.07,256.07,0,0,0-12.65,31.46,193.77,193.77,0,0,0-7.71,33.93,148.17,148.17,0,0,0,0,38.24,102,102,0,0,0,7.4,27.15,90.8,90.8,0,0,0,14.19,23.13,67.92,67.92,0,0,0,20.36,16.35,61.81,61.81,0,0,0,26.52,6.78q25.29,1.23,46.57-9.87a159.67,159.67,0,0,0,39.17-29,230.14,230.14,0,0,0,31.77-39.79,489.9,489.9,0,0,0,24.37-42.87Z" transform="translate(-521.5 -231.41)"/><path class="cls-2" d="M647.69,655.89Q622.4,638,611,621t-14.5-32.39q-3.69-25.29,11.73-48.43t40.09-42.56A302.84,302.84,0,0,1,701.67,464q28.68-14.19,50.27-21.59,27.76-8,60.46-14.81Q798.83,469,783.09,519.56T753.18,625.05a334.86,334.86,0,0,0-73.1,41.64q-34.23,25.6-62,64.46a113,113,0,0,0-11.73,21.9,205.58,205.58,0,0,0-9.56,29.3,217.41,217.41,0,0,0-5.55,33.31,138.55,138.55,0,0,0,.93,33.32,176.27,176.27,0,0,0,6.47,23.75,79.39,79.39,0,0,0,12,21.89q5.55,5.57,16,8.33a61,61,0,0,0,19.74,2.16c6.17-.4,11.1-2.16,14.81-5.24s4.31-7.71,1.85-13.88l-3.71-5.55A48.42,48.42,0,0,1,648,865a61.11,61.11,0,0,1-5.24-17.27,89.92,89.92,0,0,1-.93-22.21,105,105,0,0,1,3.71-20.66,140.09,140.09,0,0,1,6.16-17.27A64.54,64.54,0,0,1,658.8,775a181.7,181.7,0,0,1,32.69-34.86,294.88,294.88,0,0,1,40.1-27.45q-8,35.79-14.19,70.33t-9.87,66.62q-3.71,32.08-4.32,61.07a358.7,358.7,0,0,0,2.47,53.06,78,78,0,0,0,8,40.09q9.25,18.51,21.28,28.38t23.44,8.64q11.42-1.24,14.5-19.13-1.86-32.09,2.16-72.48t12-85.13q8-44.72,19.74-92.84t25.91-95.62a597.25,597.25,0,0,1,80.5-13.88q39.79-4,75.57-7.09l21-1.24q10.49-.6,20.36-1.85,3.07-.6,6.78-7.4a80,80,0,0,0,6.48-16.66,192.93,192.93,0,0,0,4.63-21.28,167.06,167.06,0,0,0,2.15-21.28,85,85,0,0,0-.92-17q-1.24-7.08-5.55-7.71-23.46,5-48.12,9t-48.11,7.71l-44.42,7.4q-22.2,3.7-43.79,8.64,12.33-35.16,25.29-67.55T910.48,464q1.85-12.33-5.86-25.6a101.61,101.61,0,0,0-20-24.37q50.56-8,102.09-13.26l100.24-10.18,82.66-7.4q5.55-1.23,9.56-15.43a161.38,161.38,0,0,0,5.24-33,238,238,0,0,0-.62-38.25q-1.85-19.43-7.4-31.77Q1156,274,1125.45,278.66t-71.25,9.57q-46.26,5.55-102.09,12.64T838.92,319.69A1004.65,1004.65,0,0,0,727,349.3q-54.59,17.9-98.39,44.41T556.4,457.25q-28.36,37-33.31,86.37a206.89,206.89,0,0,0-1.54,28.68q.32,12.66,1.54,23.14a121.88,121.88,0,0,0,10.49,32.38,309.16,309.16,0,0,0,19.12,33,81.92,81.92,0,0,0,36.08,21.28Q609.47,688,624.87,688q16.65,0,24.67-7.4t3.09-17.89Z" transform="translate(-521.5 -231.41)"/><path class="cls-2" d="M1315.75,819.36l16-41.33,11.72-30.84v1.23q1.85-4.3-3.08-10.79a53.45,53.45,0,0,0-12-11.41,51.37,51.37,0,0,0-14.19-7.1q-7.1-2.16-8.94.93-4.95,13.58-12.65,32.69t-17,38.86h.61A148,148,0,0,1,1259.93,820a181.29,181.29,0,0,1-19.43,22.52,96.09,96.09,0,0,1-19.13,14.8q-9.25,5.25-16,4.63-7.39,0-7.4-3.7-1.25-7.41,1.54-18.51a168.47,168.47,0,0,1,7.41-22.51q4.62-11.41,10.17-22.52T1227.54,775q6.17-11.72,12.34-22.83t12.95-22.2q11.1-20.37,21.28-39.79a259.21,259.21,0,0,0,16-36.71q5.86-17.26,5.86-31.77t-8-25c-.83-.82-3-2.56-6.47-5.24s-7.62-5.56-12.34-8.64-9.25-5.86-13.57-8.33-7.71-3.7-10.18-3.7q-2.48,4.32-11.1,12.34t-19.43,17.27q-10.8,9.25-22.52,18.51t-21.28,16a147.37,147.37,0,0,1-14.81,9.56q-5.24,2.78-3.39-.93l16.66-27.76a97,97,0,0,0,2.16-15.11,45.73,45.73,0,0,0-.93-12,51.84,51.84,0,0,0-8-21,71.38,71.38,0,0,0-15.11-16.35A112.08,112.08,0,0,0,1128.23,539q-10.5-5.24-20.36-10.18a194,194,0,0,1-5.55,24.06q-3.09,9.87-6.17,17.89-8,19.75-13.57,34.55t-2.47,33.92q1.86,14.81,10.49,25.3L1061,736.09v-.62q-1.85,4.32,3.08,10.18a54.7,54.7,0,0,0,12,10.48,48.93,48.93,0,0,0,13.88,6.48q6.78,1.86,8-1.85l.62.62q7.39-17.89,15.42-37.94t18.5-41h5.56q11.1.62,18.5-1.24l14.81-3.7a66.5,66.5,0,0,1,8.63-2.16q4.93-.92,13-2.77-16.05,4.94-22.21,10.48a37.28,37.28,0,0,0-9.25,12.34l-11.11,21v-.61L1141.18,733q-8.64,16.05-16,31.46a258.25,258.25,0,0,0-12.64,31.46,193.08,193.08,0,0,0-7.71,33.93,148.25,148.25,0,0,0,0,38.25,101.89,101.89,0,0,0,7.4,27.14,90.17,90.17,0,0,0,14.19,23.13,67.85,67.85,0,0,0,20.35,16.35,61.9,61.9,0,0,0,26.53,6.79,89.48,89.48,0,0,0,46.57-9.87,159.46,159.46,0,0,0,39.17-29,230.54,230.54,0,0,0,31.77-39.78A490,490,0,0,0,1315.14,820Z" transform="translate(-521.5 -231.41)"/><path class="cls-2" d="M1337.34,582.48q-3.71,21.6-10.49,47.81t-13.57,54q-11.1,40.71-21,81.43t-13,71.55v-.61a155.59,155.59,0,0,0-.93,21.59q.32,10.5,1.54,20.36,4.33,27.15,18.51,45.34t38.86,18.81a72.13,72.13,0,0,0,22.21-3.39A111.43,111.43,0,0,0,1379,931a92,92,0,0,0,15.73-10.79q6.78-5.87,11.72-10.18,28.36-31.47,53.36-72.8a743.2,743.2,0,0,0,42.87-81.42l-.62,1.23c1.64-2.87.93-6.48-2.16-10.8a56.13,56.13,0,0,0-11.41-11.72,43.83,43.83,0,0,0-13.88-7.4q-7.1-2.16-8.94,1.54l-6.79,14.81Q1449.61,762,1439.74,782a324.72,324.72,0,0,1-21.9,37.94,192.79,192.79,0,0,1-26.52,31.77,88.1,88.1,0,0,1-32.39,20h-4.32q-3.69,0-2.77-8.94a204.82,204.82,0,0,1,4.32-23.75q3.38-14.82,9.56-33.93T1378.36,766q6.48-20,13.57-39.48t12.65-35.47q2.46-6.78,5.24-14.8t4.94-14.19q2.15-6.16,3.39-9.87c.82-2.47,1-3.29.62-2.47q3.07-14.18-5.25-29.3a95.93,95.93,0,0,0-21.59-26.53,104,104,0,0,0-27.14-17.27q-13.87-5.85-21.9-1.54ZM1367,399.27a277.69,277.69,0,0,1,.62,32.07q-.63,16.67-2.47,32.7-1.24,16.05-1.85,30.84a192.35,192.35,0,0,0,.62,27.15q1.23,6.79,8.32,16.65a141.32,141.32,0,0,0,16.66,19.13,138.61,138.61,0,0,0,20.36,16.34q10.79,7.11,18.81,9a206.29,206.29,0,0,1,5.86-34.55q4-14.81,8.33-29t8.33-27.76a127,127,0,0,0,4.62-31.46q-.62-3.7-5.24-10.8a156.71,156.71,0,0,0-11.72-15.42q-7.1-8.33-16-17.27a211.71,211.71,0,0,0-17.89-16,107.51,107.51,0,0,0-16.65-11.11c-5.15-2.67-9.36-3.79-12.65-3.39Z" transform="translate(-521.5 -231.41)"/><path class="cls-2" d="M1689.56,685.5a97.7,97.7,0,0,0,7.71-26.83,92.45,92.45,0,0,0-.31-25q-4.32-27.75-22.51-44.11t-44.11-17a117.46,117.46,0,0,0-47.5,8.64,182.44,182.44,0,0,0-42.25,24.06,214.1,214.1,0,0,0-34.24,32.38q-14.8,17.58-22.82,33-23.44,46.88-31.77,87a208,208,0,0,0-.31,82q9.25,48.12,39.79,75.88t78.65,27.76q7.39,0,20-.93a131.53,131.53,0,0,0,28.06-5.55,153.41,153.41,0,0,0,32.08-14.19q16.65-9.56,32.08-26.83a339.61,339.61,0,0,0,42.56-65.08q16.65-33.62,27.76-61.38l8-22.21q3.7-10.49-.31-18.82a31.3,31.3,0,0,0-11.1-13,24.31,24.31,0,0,0-15.43-4q-8.33.62-12.64,8.64-4.95,14.19-10.8,29.92t-12.64,30.53q-13.57,27.76-29,48.12t-31.46,33q-16.05,12.66-31.16,17.58t-28.06,1.85l1.23.62q-14.81-3.07-23.75-17.89a104.08,104.08,0,0,1-12.64-31.46q51.81-17.88,89.75-54.9t57.06-92.54Zm-38.86-45a39.47,39.47,0,0,1,.31,8.63,34.52,34.52,0,0,1-2.16,9.87v-.61q-13,42.55-40.72,73.1a208.23,208.23,0,0,1-65.38,48.42,306.79,306.79,0,0,1,11.72-44.72,226.55,226.55,0,0,1,20.66-44.72,166.18,166.18,0,0,1,29.3-36.4q16.66-15.42,37-19.74,7.41-2.46,9.26,6.17Z" transform="translate(-521.5 -231.41)"/><path class="cls-2" d="M2052.89,806.41l22.82-59.22v1.23q1.85-4.3-3.39-10.18a52,52,0,0,0-12.65-10.17,50.73,50.73,0,0,0-14.19-5.86q-6.8-1.55-8.63,1.54l-6.17,17.89q-3.71,9.25-7.71,18.5t-9,19.13q-17.26,38.25-37,60.45t-35.16,31.46h.62q-3.09,1.86-3.09,3.7a217.76,217.76,0,0,1-1.23-32.07,261.32,261.32,0,0,1,2.78-29q2.14-14.17,5.55-28.68t7.71-31.77q4.92-19.74,11.1-47.19t12.34-58.92q1.23-9.86-4.94-22.82A107.65,107.65,0,0,0,1957,600.37a110.76,110.76,0,0,0-20.66-18.81q-11.1-7.71-19.74-7.72a96.69,96.69,0,0,0-48.42,17.28,215.58,215.58,0,0,0-41.64,37.63,78.65,78.65,0,0,0-16.66-22.52A129.13,129.13,0,0,0,1786.4,588a102.6,102.6,0,0,0-24.06-10.79q-11.71-3.39-17.88.31-3.11,25.91-8,54t-9.87,57.68q-4.93,25.31-9.26,50.28t-7.09,50.58q-2.78,25.61-3.39,51.82a404,404,0,0,0,2.46,54q1.86,8,13.58,16a125.26,125.26,0,0,0,25,13.26q13.26,5.24,24.06,5.86t10.79-6.17a481.08,481.08,0,0,1,.62-80.81,608.08,608.08,0,0,1,12.34-78.34q14.8-25.92,29.6-47.2a469.65,469.65,0,0,1,33.93-42.87l21-25.29q1.23,6.79,0,17.58a180.41,180.41,0,0,1-4.31,23.13q-6.8,29-11.72,52.13t-7.71,42.87q-2.78,19.76-3.71,37.63a241.93,241.93,0,0,0,.93,36.4q2.46,21.6,10.18,37.32t18.5,25.6a69.11,69.11,0,0,0,24.06,14.5,79.34,79.34,0,0,0,26.22,4.63q21,0,39.79-15.12a190.83,190.83,0,0,0,34.54-36.7,336.15,336.15,0,0,0,27.45-44.42q11.71-22.82,18.51-38.86Z" transform="translate(-521.5 -231.41)"/><path class="cls-2" d="M2298.39,798.39a851.42,851.42,0,0,1,21-90.06q12.33-42,24.67-80.82v.62l10.49-33.93q6.78-21,14.19-44.72t13.57-45.34q6.16-21.58,10.49-38.87t5.55-24.67q1.84-13.56-8.33-28.38a105.38,105.38,0,0,0-25-25.6,115.28,115.28,0,0,0-29.92-16q-15.12-5.24-22.52-.31-1.23,17.89-4.62,39.79t-8.33,45.65q-4.95,23.76-11.41,48.43t-14.5,47.5L2262,587.42l-3.08,8a78.49,78.49,0,0,0-31.46-20.36,168,168,0,0,0-17.27-3.7,105.78,105.78,0,0,0-16-1.24,113.57,113.57,0,0,0-50.89,11.72,164,164,0,0,0-43.49,31.46,261,261,0,0,0-35.78,45,298.73,298.73,0,0,0-26.52,52.43,339.41,339.41,0,0,0-16,54.29q-5.55,27.15-4.32,50a171.46,171.46,0,0,0,1.85,22.2,167.1,167.1,0,0,0,8.94,31.77,119.88,119.88,0,0,0,18.2,31.77,110.72,110.72,0,0,0,29.3,25.6q17.58,10.8,41.64,13.27,25.29-.63,47.81-19.13a230.49,230.49,0,0,0,41-44.41q6.78,27.75,24.67,46t48.12,20.66a66,66,0,0,0,23.44-2.77,90.94,90.94,0,0,0,19.12-8.64,87,87,0,0,0,14.81-11.1q6.15-5.87,10.48-10.8a268.14,268.14,0,0,0,43.18-63.85q17.27-35.46,31.46-71.86v-.62l9.87-24.68q1.86-4.3-3.7-10.18a58.14,58.14,0,0,0-12.95-10.17,50.15,50.15,0,0,0-14.5-5.86q-7.09-1.55-8.94,1.54a75.16,75.16,0,0,1-6.79,16.65q-7.4,19.14-15.73,39.79a309.5,309.5,0,0,1-18.81,38.87,184.63,184.63,0,0,1-23.44,32.38q-13,14.2-29,20.36H2291c1.24-.4,1.44-2.67.62-6.79q-1.84-12.94-.31-30.84a239.27,239.27,0,0,1,5.86-35.78ZM2117,858.23q-7.4-9.26-9.25-23.44a128.63,128.63,0,0,1-2.16-20,82.38,82.38,0,0,1,.92-17q2.46-24.06,11.11-53.67a300.32,300.32,0,0,1,22.2-55.52q13.58-25.91,32.39-42.87t41.64-16.35a28.38,28.38,0,0,1,17.27,8,40.57,40.57,0,0,1,9.87,16q-6.18,20.36-11.1,41t-9.26,41l-3.7,21.59q-6.16,14.19-15.73,31.77t-19.74,33a212.24,212.24,0,0,1-20.66,26.84q-10.5,11.42-18.51,13.88Q2124.42,867.49,2117,858.23Z" transform="translate(-521.5 -231.41)"/><path class="cls-2" d="M2518.6,594.2q6.17-20.36,13.26-43.49t13-44.72q5.85-21.58,10.48-38.87t6.48-26.52q1.23-13.56-9.25-28.07a126.84,126.84,0,0,0-24.68-25.6,102,102,0,0,0-29.3-16.35q-15.12-5.24-23.13-.31-1.85,18.51-5.24,40.41T2461.54,456q-5.25,23.44-11.41,47.81t-12.34,47.81l-16,51.81q-16.65,56.77-30.84,115a466,466,0,0,0-12.95,120q0,6.16.3,13.88a107,107,0,0,0,1.55,14.5q4.93,31.46,20.66,53T2444,942.74a74.12,74.12,0,0,0,22.82-3.39,102.23,102.23,0,0,0,19.13-8.33,98,98,0,0,0,15.42-10.79,112.62,112.62,0,0,0,11.1-10.8q23.43-27.13,41-63.23T2585.22,775l11.1-27.76q1.23-4.31-4-10.18a52,52,0,0,0-12.64-10.18,60.23,60.23,0,0,0-14.19-6.17q-6.8-1.85-8,1.85a85.73,85.73,0,0,1-4.62,10.18,70.09,70.09,0,0,0-4.63,10.8h.62q-7.41,19.13-15.73,39.17a320.24,320.24,0,0,1-18.51,37.63,182.23,182.23,0,0,1-22.82,31.46,75.21,75.21,0,0,1-28.69,20h-4.32v-4.93q-2.46-13,0-34.55t7.71-47.19q5.24-25.59,12.34-53T2493,679.64q7.08-25,13.26-45.34t9.87-32.08Z" transform="translate(-521.5 -231.41)"/><path class="cls-3" d="M2590.41,1333.16q-1.24,19.13-5.86,47.81t-9.56,60.14q-6.78,38.87-12.65,78.66t-7.09,67.55q0,6.79.61,14.8t1.85,14.81q5,30.85,21,52.43t43.18,22.83a73.86,73.86,0,0,0,22.82-3.4,101.83,101.83,0,0,0,19.12-8.32,97.62,97.62,0,0,0,15.43-10.8,111.5,111.5,0,0,0,11.1-10.8l7.4-9.25q-9.87,41.94-20.35,79-13.59-4.93-25.91-8.94a237.32,237.32,0,0,0-25.91-6.79,286.59,286.59,0,0,0-29.3-4.32q-15.73-1.54-34.85-1.54-34.55,0-64.16,11.41T2447,1750.48a125.09,125.09,0,0,0-30.23,48.74q-9.56,28.07-4.62,60.76,4.32,25.9,17.58,43.8a107.87,107.87,0,0,0,32.07,29,146.69,146.69,0,0,0,41,16.35,193,193,0,0,0,44.42,5.24q69.69,0,112.27-31.46t69.7-88.21l40.71,27.76,29.61,21q6.78,3.7,20.67-.92a83.86,83.86,0,0,0,25.29-13.58q11.4-8.94,16.35-19.43T2855,1831a28.85,28.85,0,0,1-5.55-4.32,46.38,46.38,0,0,0-4.94-4.32l.62,1.23q-22.2-15.42-44.41-29.92t-45-27.45q8.63-27.75,16.34-58.6t15.12-65.39l53-243.67q1.85-14.19-8.33-28.69a117.08,117.08,0,0,0-24.68-25.6,105.7,105.7,0,0,0-29.61-16.34q-15.12-5.24-23.13-.93-4.93,40.71-10.48,79.27t-11.72,72.48a43.56,43.56,0,0,1-3.09,7.1,43.41,43.41,0,0,0-3.08,7.09h.61q-7.39,19.13-15.73,39.17a320.21,320.21,0,0,1-18.5,37.63,181.83,181.83,0,0,1-22.83,31.47,75,75,0,0,1-28.68,20h-5.55c.4,0,.62-1.63.62-4.93q-1.86-13,.61-34.85t7.4-46.58q4.93-24.66,11.11-49.66t11.72-45.34v.62q4.3-14.19,6.78-25.3t3.71-16.65q1.84-14.19-8-29a126.56,126.56,0,0,0-23.75-26.53,99.46,99.46,0,0,0-28.38-17.27q-14.5-5.57-21.9-1.24Zm-83.28,569.69a83.23,83.23,0,0,1-22.2-7.4,58.26,58.26,0,0,1-18.2-14.19q-7.71-8.94-9.56-23.13-3.71-20.36,6.17-35.16t27.45-24.68a138.33,138.33,0,0,1,40.09-14.5,213.53,213.53,0,0,1,42.87-4.62q42.57.6,79,14.8a384.21,384.21,0,0,1-23.75,45,180.28,180.28,0,0,1-28.07,35.16,119,119,0,0,1-33,22.82,91.88,91.88,0,0,1-38.55,8A122.81,122.81,0,0,1,2507.13,1902.85Z" transform="translate(-521.5 -231.41)"/><path class="cls-3" d="M2577.56,583.71q-1.24,19.14-5.86,47.81t-9.56,60.15q-6.79,38.87-12.65,78.65t-7.09,67.55q0,6.79.61,14.81a148.22,148.22,0,0,0,1.85,14.8q4.95,30.85,21,52.44T2609,942.74a74.17,74.17,0,0,0,22.82-3.39A101.85,101.85,0,0,0,2651,931a97.48,97.48,0,0,0,15.42-10.79,112.84,112.84,0,0,0,11.11-10.8l7.4-9.25q-9.87,41.94-20.36,79-13.58-4.95-25.9-8.95a237.92,237.92,0,0,0-25.91-6.78,283.84,283.84,0,0,0-29.3-4.32q-15.74-1.55-34.86-1.54-34.53,0-64.15,11.41T2434.14,1001a124.86,124.86,0,0,0-30.23,48.73q-9.55,28.07-4.63,60.77,4.33,25.9,17.59,43.79a107.9,107.9,0,0,0,32.07,29,146.69,146.69,0,0,0,41,16.35,193.6,193.6,0,0,0,44.42,5.24q69.69,0,112.27-31.46t69.7-88.22l40.71,27.76,29.61,21q6.78,3.69,20.67-.93a83.61,83.61,0,0,0,25.29-13.57q11.4-9,16.34-19.43t-6.78-18.51a28.46,28.46,0,0,1-5.55-4.32,47.54,47.54,0,0,0-4.94-4.32l.62,1.24q-22.2-15.44-44.41-29.92t-45-27.45q8.63-27.76,16.34-58.61t15.11-65.39l53.05-243.67q1.86-14.18-8.32-28.68a116.64,116.64,0,0,0-24.68-25.6,106,106,0,0,0-29.61-16.35q-15.12-5.24-23.13-.92-4.95,40.71-10.49,79.27t-11.72,72.48a43,43,0,0,1-3.08,7.09,43.9,43.9,0,0,0-3.08,7.1h.61q-7.4,19.13-15.73,39.17a320.21,320.21,0,0,1-18.5,37.63,181.74,181.74,0,0,1-22.83,31.46,75.11,75.11,0,0,1-28.68,20h-5.55c.4,0,.61-1.64.61-4.93q-1.85-13,.62-34.86t7.4-46.57q4.94-24.68,11.11-49.66t11.72-45.34v.61q4.3-14.17,6.78-25.29t3.7-16.66q1.86-14.18-8-29a126.49,126.49,0,0,0-23.74-26.53,99.69,99.69,0,0,0-28.38-17.27q-14.51-5.55-21.9-1.23Zm-83.28,569.7a83.77,83.77,0,0,1-22.21-7.4,58.49,58.49,0,0,1-18.19-14.19q-7.71-9-9.56-23.14-3.71-20.36,6.16-35.16t27.45-24.67a137.81,137.81,0,0,1,40.1-14.5,213.58,213.58,0,0,1,42.87-4.63q42.57.62,79,14.81a385.55,385.55,0,0,1-23.75,45,180.28,180.28,0,0,1-28.07,35.16,119.09,119.09,0,0,1-33,22.83,91.88,91.88,0,0,1-38.55,8A123.72,123.72,0,0,1,2494.28,1153.41Z" transform="translate(-521.5 -231.41)"/><path class="cls-4" d="M2596.27,1708.53a286.59,286.59,0,0,1,29.3,4.32,237.32,237.32,0,0,1,25.91,6.79q12.33,4,25.91,8.94a515.66,515.66,0,0,1-24.68,65.39q-36.4-14.19-79-14.8C2560.18,1779.17,2585.78,1707.5,2596.27,1708.53Z" transform="translate(-521.5 -231.41)"/><path class="cls-5" d="M2755.73,1766.21q22.82,13,45,27.45t44.41,29.92l-.62-1.23a46.38,46.38,0,0,1,4.94,4.32c1.64,1.64-45.45,59.22-50,56.75l-29.61-21-40.71-27.76C2736.6,1818.27,2749.23,1787,2755.73,1766.21Z" transform="translate(-521.5 -231.41)"/><path class="cls-6" d="M2716.35,1085.24c-18.25,37.88-41.33,67.24-69.71,88.22s-68.88-38.87-58.6-48.74a181,181,0,0,0,28.07-35.16,387.08,387.08,0,0,0,23.75-45C2664.59,1055.31,2693.26,1069.87,2716.35,1085.24Z" transform="translate(-521.5 -231.41)"/><path class="cls-7" d="M2770.19,911.73q-5.42,24.18-11,46.43-7.72,30.84-16.35,58.61a736.82,736.82,0,0,0-78.34-37.63q10.48-37,20.36-79S2744.08,908.5,2770.19,911.73Z" transform="translate(-521.5 -231.41)"/></svg>